# xmcd
#
# Track frame offsets: 
#        150
#        17782
#        33051
#        56275
#        72267
#        88130
#        102455
#        131108
#        149361
#        166454
#        184868
#
# Disc length: 2653 seconds
#
# Revision: 0
# Processed by: cddbd v1.5.2PL0 Copyright (c) Steve Scherf et al.
# Submitted via: ExactAudioCopy v1.3
#
DISCID=980a5b0b
DTITLE=Sugar Queen and the Straight Blues Band - 340 Blues
DYEAR=2017
DGENRE=Chicago Blues
TTITLE0=Crab Boil Shuffle
TTITLE1=Give Sugar
TTITLE2=Wanna Take My Man
TTITLE3=15 Dollars
TTITLE4=Hey Guys
TTITLE5=Handfast Love
TTITLE6=By The Law
TTITLE7=Moonshine Bill
TTITLE8=I Can't Wait
TTITLE9=Sugar Queen Blues Groove
TTITLE10=I Miss You
EXTD=
EXTT0=
EXTT1=
EXTT2=
EXTT3=
EXTT4=
EXTT5=
EXTT6=
EXTT7=
EXTT8=
EXTT9=
EXTT10=
PLAYORDER=
